# xmcd CD database file
#
# Track frame offsets:
#	150
#	16135
#	36682
#	47080
#	56855
#	73942
#	88810
#	106887
#	126362
#	142967
#	160220
#	177497
#	197202
#
# Disc length: 2850 seconds
#
# Revision: 0
# Processed by: cddbd v1.4PL0 Copyright (c) Steve Scherf et al.
# Submitted via: CDex 1.50
#
DISCID=c50b200d
DTITLE=Nathalie Nordnes - Hush Hush
DYEAR=2003
DGENRE=Jazz
TTITLE0=Chocolate Hot
TTITLE1=Sailing
TTITLE2=Musicbox
TTITLE3=All as One
TTITLE4=Without Your Love
TTITLE5=The Cat Song
TTITLE6=Merry Go Round
TTITLE7=Between Sheets
TTITLE8=Only Because
TTITLE9=Best Friend's Baby
TTITLE10=All or Nothing
TTITLE11=Good Times
TTITLE12=Hush Hush
EXTD=YEAR: 2003
EXTT0=
EXTT1=
EXTT2=
EXTT3=
EXTT4=
EXTT5=
EXTT6=
EXTT7=
EXTT8=
EXTT9=
EXTT10=
EXTT11=
EXTT12=
PLAYORDER=
